<svg width="6e3" height="2437" version="1.1" viewBox="0 0 6e3 2437" xmlns="http://www.w3.org/2000/svg">
 <g transform="matrix(.94313 0 0 .94307 0 -2.237e-6)" stroke-width="1.0603">
  <path d="m265.02 1714.2c-219.3-449.46-265.02-848.91-265.02-1358.8 524.54-408.89 1372.6-474.09 2171.3-147.79l22.013 93.982c-277.64-70.076-712.28-147.42-761.13 67.284-15.973 70.205 22.417 172.87 89.668 254.31 47.821 57.905 76.984 111.77 113.89 203.2 36.07 89.363 69.936 217.05 43.021 349.64-59.184 291.56-377.62 372.29-679.94 354.43 0-32.564 41.504-66.516 60.43-79.556 38.475-26.508 112.97-57.517 189.6-121.72 44.301-37.121 141.61-124.95 136.5-204.95 22.734 19.285 34.663 45.519 38.924 70.027 24.095-63.29 15.984-156.1-35.079-185.65 31.448-7.354 62.984 7.7601 82.455 26.668-0.4863-60.47-70.528-129.64-139.43-142.94 34.944-17.263 60.415-16.011 88.254-0.65314-71.988-127.18-216.04-136.22-339.35-102.8 38.375-39.664 54.82-106.93 59.932-143.51-121.25 15.846-201.37 61.08-236.61 118.01-114.64-15.165-213.61 42.634-273.99 123.7-109.05 48.02-217.61 49.131-276.68-5.95-13.061 16.818-30.137 57.377-30.137 84.007 0 89.045 132.03 93.931 159.69 94.921-76.379 78.27-182.77 127.23-273.48 44.745 7.8006 37.697 24.764 85.284 72.999 99.312 60.871 16.31 144.32-42.023 173.13-67.063 30.6-26.602 103.38-75.365 122.24-44.517-36.957 64.188-118.51 109.85-165.84 138.62l77.437 174.84c50.529-99.319 156.76-198.62 314.74-249.24 82.96-26.584 199.77-81.184 210.68-156.34 52.573-3.4886 92.104 3.6641 130.62 21.96 44.695 21.231 47.684 46.088 12.511 81.26-70.668 70.668-312.15 175.42-346.51 188.17-109.93 40.781-176.41 119.83-162.57 237.83 36.532 311.59 567.12 799.28 751.4 864.63l257.67-127.89v67.126c-149.98 120.57-320.27 202.59-489 250.65-414.65-153.27-734.92-522.76-904.33-869.98z" fill="#033d62"/>
  <g transform="translate(-80.65 -102.34)" fill="#7c7b7b">
   <path d="m3869.4 1565.2c-55.957-0.2049-109.08 15.535-172.08 41.367l-12.619-33.4-84.754-0.123v418.92h110.44v-290.76c39.263-16.766 151.63-64.923 151.63-7.8418v298.6h113.35l-0.9707-170.22c-0.3408-59.708-0.6835-94.996-1.1524-121.47 40.847-17.434 149.42-63.102 149.42-6.9082v298.6h113.35l-0.9707-170.22c-0.8369-146.68 1.4635-162.49-4.709-185.52-12.035-44.916-40.254-71.024-97.389-71.189-55.005-0.1588-129.33 22.291-174.82 44.029-16.72-31.688-43.371-43.699-88.723-43.865z"/>
   <path d="m5603 701.53 106.64-14.007 3.0879 603.47h-109.73z"/>
   <path d="m4644 701.53 106.64-14.007 1.1059 216.12c62.593-25.666 102.9-35.87 158.49-36.893 56.243-0.35739 83.576 19.201 98.849 70.733 4.0616 13.704 3.2709 31.923 5.472 184.33l2.4435 169.18h-112.62l-1.4785-298.34c0-56.714-111.64-8.8683-150.65 7.7896l1.4785 290.55h-109.73z"/>
   <path d="m3420.7 701.53 106.64-14.007 1.1059 216.12c62.593-25.666 102.9-35.87 158.49-36.893 56.243-0.35739 83.576 19.201 98.849 70.733 4.0616 13.704 3.2709 31.923 5.472 184.33l2.4435 169.18h-112.62l-1.4785-298.34c0-56.714-111.64-8.8683-150.65 7.7896l1.4785 290.55h-109.73z"/>
   <path d="m3301.1 1573.4h95.536c2.8281 15.295 4.9332 30.691 7.0794 46.087 32.534-20.066 92.649-50.173 119.17-54.216l11.354 95.859c-40.788 16.346-80.242 37.338-120.48 61.627v269.28h-112.65z"/>
   <path d="m3877 1276.6 13.354-79.033c46.569 12.024 147.4 24.973 175.53 11.826 11.754-5.494 15.18-18.882 15.18-40.267 0-39.35-51.642-43.55-93.933-54.881-78.101-20.659-97.238-39.217-103.86-93.536-3.1548-25.881-1.844-59.676 3.7985-80.652 14.523-53.986 55.258-75.846 159.69-75.846 49.181 0 91.472 1.3394 134.66 13.918-2.8127 29.206-6.0215 51.338-10.084 82.573-43.51-3.7526-90.637-11.762-130.63-10.371-42.122 1.6523-50.005 10.012-49.842 43.556 0.1006 20.84 11.651 29.069 30.027 34.318 7.3989 2.0447 31.446 8.5435 53.438 14.442 101.31 27.169 117.45 42.857 117.45 123.2 0 54.75-11.191 84.864-35.462 104.52-37.864 29.287-85.044 29.023-118.11 29.16-44.555 0.1832-122.17-3.1821-161.21-22.935z"/>
   <path d="m4319 1977.6 13.354-79.033c46.569 12.024 147.4 24.973 175.53 11.826 11.754-5.494 15.18-18.882 15.18-40.267 0-39.35-51.642-43.55-93.933-54.881-78.101-20.659-97.238-39.217-103.86-93.536-3.1548-25.881-1.844-59.676 3.7985-80.652 14.523-53.986 55.258-75.846 159.69-75.846 49.181 0 91.472 1.3394 134.66 13.918-2.8127 29.206-6.0215 51.338-10.084 82.573-43.51-3.7526-90.637-11.762-130.63-10.371-42.122 1.6523-50.005 10.012-49.842 43.556 0.1006 20.84 11.651 29.069 30.027 34.318 7.3989 2.0447 31.446 8.5435 53.438 14.442 101.31 27.169 117.45 42.857 117.45 123.2 0 54.75-11.191 84.864-35.462 104.52-37.864 29.287-85.044 29.023-118.11 29.16-44.555 0.1832-122.17-3.1821-161.21-22.935z"/>
   <path d="m4262.5 1146.8v-129.86c0-133.18 98.759-152.73 183.8-152.73 47.963 0 94.1 7.2598 114.67 16.128l-13.114 84.27c-44.823-9.5146-69.513-10.772-101.1-10.772-54.636 0-72.995 19.991-72.995 63.104v129.86c0 56.545 35.413 62.502 74.306 63.191 44.58 0.79 95.756-9.9729 99.647-10.833l12.795 84.952c-34.42 9.7669-66.187 15.423-111.98 15.423-86.896 0-186.02-17.461-186.02-152.73z"/>
   <path d="m2042 719h115v235h225v-235h115v572h-115v-242h-225v242h-115z"/>
   <path d="m5490 1291h-84.509l-12.423-34.64c-62.593 25.666-116.22 43.52-171.19 43.206-56.243-0.3213-83.388-21.526-98.662-73.058-4.0616-13.704-7.9154-61.29-7.9154-184.33l-1e-4 -169.18h112.62l1.4785 298.34c0.2811 56.713 111.64 8.8683 150.65-7.7895l-1.4785-290.55h109.73z"/>
   <path d="m3043.2 1146.8v-129.86c0-133.18 98.759-152.73 183.8-152.73 47.963 0 94.1 7.2598 114.67 16.128l-13.114 84.27c-44.823-9.5146-69.513-10.772-101.1-10.772-54.636 0-72.995 19.991-72.995 63.104v129.86c0 56.545 35.413 62.502 74.306 63.191 44.58 0.79 95.756-9.9729 99.647-10.833l12.795 84.952c-34.42 9.7669-66.187 15.423-111.98 15.423-86.896 0-186.02-17.461-186.02-152.73z"/>
   <path d="m2774 864.24c-101.9 0-192.95 39.567-192.95 152.73l2e-4 129.86c2e-4 113.15 91.06 152.73 192.95 152.73 101.9 0 191.51-39.429 191.51-152.73v-129.86c0-113.31-89.619-152.73-191.51-152.73zm80.795 152.73v129.86c0 47.918-37.308 64.195-80.795 64.195-43.486 0-82.738-16.277-82.738-64.193v-129.86c0-47.918 39.251-64.195 82.738-64.196s80.795 16.276 80.795 64.194z"/>
   <path d="m2131.5 1992-149.58-572h112.82l115.94 444.89 110.32-444.89h152.96l110.37 445.3 116.24-445.3h113.49l-150.62 572h-154.84l-111.3-460.5-111.28 460.5z"/>
   <path d="m3017.8 1565.2c-101.9 0-192.95 39.567-192.95 152.73l2e-4 129.86c2e-4 113.15 91.06 152.73 192.95 152.73 101.9 0 191.51-39.429 191.51-152.73v-129.86c0-113.31-89.619-152.73-191.51-152.73zm80.795 152.73v129.86c0 47.918-37.308 64.195-80.795 64.195-43.486 0-82.738-16.277-82.738-64.193v-129.86c0-47.918 39.251-64.195 82.738-64.196 43.487 0 80.795 16.276 80.795 64.194z"/>
   <path d="m5988.5 864.24c-54.341 0.121-93.92 10.406-124.55 32.312-32.573 23.293-50.115 56.518-55.948 105.98-4.2906 36.382-4.1997 158.6 3.9173 188.89 18.495 69.025 59.841 96.542 131.53 106.57 21.371 2.9897 96.182 1.4575 122.68-2.2378 28.502-3.9753 88.384-18.479 91.776-22l-16.192-77.425c-13.681 2.4779-27.747 5.4477-39.439 7.925-54.024 11.446-121.37 13.399-147.32 4.2693-25.694-9.0416-35.824-26.692-35.909-62.576l-0.054-23.815h246.52v-66.297c0-56.975-1.9714-69.13-6.6529-86.416-7.4589-27.542-18.907-47.879-36.271-64.441-30.57-29.159-69.084-40.878-134.08-40.734zm4.4904 85.78c37.117 0 47.252 11.593 54.488 22.177 13.461 19.691 12.267 34.656 12.267 64.968h-141.23c-0.4918-24.958 2.6668-54.162 13.283-64.778 19.101-19.101 39.048-22.373 61.188-22.367z"/>
  </g>
  <g transform="translate(-80.65 -102.34)" fill="#033d62">
   <path d="m5005.2 2420.9c18.975 0 39.698-5.7902 54.994-16.988l4.0216 14.094h34.738v-235.27l-43.047 6v68.238c-13.583-5.2899-31.255-5.1797-50.707-5.1797-29.818 0-53.225 13.066-53.225 59.33v50.445c0 44.014 21.907 59.332 53.225 59.332zm12.5-34.394c-12.085 1e-4 -22.453-3.0734-22.453-21.688v-53.695c0-18.614 6.3677-24.938 22.203-24.938 3.2181 0 23.957 0.7069 38.457 4.1191v80.938c-8.9429 7.9796-24.153 15.264-38.207 15.264z"/>
   <path d="m5213.1 2408.8 7.7972-33.974c24.667 6.4148 41.812 10.562 65.714 10.562 17.19 0 38.965 3.3721 38.965-29.998 0-29.189-10.265-23.624-54.02-35.464-38.49-10.416-50.286-17.16-53.539-45.734-1.5496-13.615-1.4057-31.392 1.366-42.426 7.1337-28.399 28.044-39.898 79.342-39.898 24.158 0 45.633 0.7046 66.847 7.3213l-4.9532 35.037c-15.373-3.2241-47.937-7.2111-64.868-6.5807-21.585 0.9068-33.983 1.491-33.983 28.137 0 21.963 5.7806 23.504 24.25 28.453 3.6613 0.981 15.367 3.7853 26.25 6.596 50.013 12.917 57.696 17.445 57.696 59.71 0 28.8-3.297 44.641-15.22 54.984-18.599 15.406-43.975 15.321-60.217 15.393-21.886 0.096-62.247-1.7274-81.428-12.118z"/>
   <path d="m4066.2 2195-74.362 223h46.879l14.274-45.63h89.043l14.466 45.63h46.596l-74.229-223zm31.016 36 32.706 103.16h-64.979z"/>
   <path d="m3822.6 2206.4c-4.5977 10.932-4.5785 18.786-4.5785 48.646h-27.591v32l27.591 2e-4v131h43.062v-131l41.224-2e-4 2.7241-32h-43.948c0-22.76-1.2784-32.355 9.5955-39.07 4.6535-2.8737 28.579-0.102 34.709 0.9948l4.264-30.626c-42.38-10.383-76.418-5.2281-87.052 20.056z"/>
   <path d="m3690 2251.8c-39.582 0-74.952 15.37-74.952 59.331l1e-4 50.446c1e-4 43.956 35.373 59.331 74.952 59.331 39.582 0 74.395-15.316 74.395-59.331v-50.446c0-44.014-34.813-59.331-74.395-59.331zm31.385 59.331v50.446c0 18.614-14.493 24.937-31.385 24.937-16.893 0-32.14-6.3229-32.14-24.936v-50.446c0-18.614 15.247-24.937 32.14-24.938 16.893 0 31.385 6.3226 31.385 24.937z"/>
   <path d="m4605.8 2188.5 41.526-5.4544 1.2025 235h-42.729z"/>
   <path d="m5821.2 2255 32.987 0.048 4.9115 13c24.52-10.054 45.198-15.765 66.974-16.165 22.032-0.14 32.74 7.5217 38.722 27.708 1.5911 5.3685 1.8028 12.5 2.1436 72.207l0.378 66.25h-44.117v-116.22c0-22.217-43.218-3.7834-58.5 2.742l-0.5165 113.48h-42.984z"/>
   <path d="m5560 2255h44v163h-44zm0-23-1e-4 -48.039h44v48.039z"/>
   <path d="m4697 2255h44v163h-44zm0-23-1e-4 -48.039h44v48.039z"/>
   <path d="m5404.6 2361.5v-50.414c0-51.702 38.34-59.292 71.352-59.292 18.62 0 36.531 2.8184 44.516 6.2613l-5.0912 32.715c-17.401-3.6937-26.986-4.182-39.247-4.182-21.21 0-28.338 7.7609-28.338 24.498v50.414c0 21.952 13.748 24.264 28.847 24.532 17.307 0.3066 37.174-3.8717 38.684-4.2056l4.9671 32.98c-13.362 3.7916-25.695 5.9874-43.474 5.9874-33.734 0-72.217-6.7785-72.217-59.294z"/>
   <path d="m3156.5 2255h44v163h-44zm0-23-1e-4 -48.039h44v48.039z"/>
   <path d="m2889 2255h36.466c1.0795 5.9553 1.883 11.95 2.7022 17.945 12.418-7.813 35.364-19.536 45.485-21.11l4.3338 37.324c-15.569 6.3643-30.628 14.538-45.987 23.995v104.85h-43z"/>
   <path d="m2581 2418-55.083-163h43.955l39.649 122.82 39.822-122.82h43.907l-55.06 163z"/>
   <path d="m2449 2255h44v163h-44zm0-23-1e-4 -48.039h44v48.039z"/>
   <path d="m2264 2255 32.987 0.048 4.9115 13c24.52-10.054 45.198-15.765 66.974-16.165 22.032-0.14 32.74 7.5217 38.722 27.708 1.5911 5.3685 1.8028 12.5 2.1436 72.207l0.378 66.25h-44.117v-116.22c0-22.217-43.735-3.474-59.016 3.0514v113.17h-42.984z"/>
   <path d="m6320.4 2411.7 5.1767-30.636c18.052 4.661 57.139 9.6804 68.041 4.5843 4.5563-2.1297 5.8842-7.3193 5.8842-15.609 0-15.254-20.019-16.882-36.412-21.274-30.275-8.0084-37.693-15.202-40.26-36.258-1.2229-10.033-0.7148-23.133 1.4725-31.264 5.6296-20.927 21.42-29.401 61.902-29.401 19.065 0 35.458 0.5192 52.199 5.3951-1.0903 11.321-2.3342 19.901-3.9088 32.009-16.866-1.4547-35.135-4.5593-50.637-4.0203-16.328 0.6405-19.384 3.8811-19.321 16.884 0.039 8.0786 4.5163 11.268 11.64 13.303 2.8681 0.7926 12.19 3.3118 20.715 5.5981 39.27 10.532 45.53 16.613 45.53 47.759 0 21.223-4.338 32.897-13.746 40.518-14.678 11.353-32.967 11.251-45.784 11.304-17.272 0.071-47.356-1.2335-62.492-8.8904z"/>
   <path d="m6006.3 2361.5v-50.414c0-51.702 38.34-59.292 71.352-59.292 18.62 0 36.531 2.8184 44.516 6.2613l-5.0912 32.715c-17.401-3.6937-26.986-4.182-39.247-4.182-21.21 0-28.338 7.7609-28.338 24.498v50.414c0 21.952 13.748 24.264 28.847 24.532 17.307 0.3066 37.174-3.8717 38.684-4.2056l4.9671 32.98c-13.362 3.7916-25.695 5.9874-43.474 5.9874-33.734 0-72.217-6.7785-72.217-59.294z"/>
   <path d="m3259.4 2399.7c-3.6634-10.289-4.3729-12.439-4.3729-64.5v-48.25h-26v-32l26-2e-4v-40.5l44-5.5v46l44.176 2e-4 -2.9328 32h-41.243v45.425c0 44.137-0.357 50.743 5.9673 53.058 9.5524 3.4969 20.273 1.3858 30.528-1.586l5.139 31.501c-40.081 10.383-73.365 6.5292-81.261-15.649z"/>
   <path d="m3000.5 2411.7 5.1767-30.636c18.052 4.661 57.139 9.6804 68.041 4.5843 4.5563-2.1297 5.8842-7.3193 5.8842-15.609 0-15.254-20.019-16.882-36.412-21.274-30.275-8.0084-37.693-15.202-40.26-36.258-1.2229-10.033-0.7148-23.133 1.4725-31.264 5.6296-20.927 21.42-29.401 61.902-29.401 19.065 0 35.458 0.5192 52.199 5.3951-1.0903 11.321-2.3342 19.901-3.9088 32.009-16.866-1.4547-35.135-4.5593-50.637-4.0203-16.328 0.6405-19.384 3.8811-19.321 16.884 0.039 8.0786 4.5163 11.268 11.64 13.303 2.8681 0.7926 12.19 3.3118 20.715 5.5981 39.27 10.532 45.53 16.613 45.53 47.759 0 21.223-4.338 32.897-13.746 40.518-14.678 11.353-32.967 11.251-45.784 11.304-17.272 0.071-47.356-1.2335-62.492-8.8904z"/>
   <path d="m2782 2251.8c-21.106 0.047-36.479 4.0418-48.377 12.55-12.652 9.0473-19.465 21.952-21.73 41.162-1.6665 14.131-1.6312 61.599 1.5215 73.365 7.1836 26.81 23.242 37.497 51.086 41.393 8.3005 1.1612 37.358 0.5661 47.648-0.8692 11.07-1.544 34.329-7.1773 35.646-8.5449l-6.289-30.072c-5.3137 0.9624-10.777 2.1159-15.318 3.0781-20.983 4.4458-47.142 5.2042-57.219 1.6582-9.9796-3.5118-13.914-10.367-13.947-24.305l-0.021-9.25h95.75v-25.75c0-22.129-0.7657-26.85-2.584-33.564-2.8971-10.698-7.3437-18.596-14.088-25.029-11.874-11.326-26.833-15.877-52.078-15.821zm1.7441 33.318c14.416 0 18.353 4.5027 21.164 8.6137 5.2285 7.6483 4.7647 13.461 4.7647 25.234h-54.853c-0.191-9.6939 1.0358-21.037 5.1592-25.16 7.4189-7.4189 15.166-8.6899 23.766-8.6875z"/>
   <path d="m2136.1 2420.9c-61.3 0-87.899-34.394-87.899-60.394l-0.2765-165.5h43.956v165.5c0 7.25 11.952 23.485 44.03 23.485s42.132-14.118 42.132-23.485v-165.5h45.056v165.5c0 26-25.699 60.394-87 60.394z"/>
   <path d="m3405.6 2484 20.498-63.106-14.35-2.8945-54.604-163h44.374l39.627 122.19 39.758-122.19h43.887l-78.161 229z"/>
   <path d="m4852.4 2251.8c-21.106 0.047-36.479 4.0418-48.377 12.55-12.652 9.0473-19.465 21.952-21.73 41.162-1.6665 14.131-1.6312 61.599 1.5215 73.365 7.1836 26.81 23.242 37.497 51.086 41.393 8.3005 1.1612 37.358 0.5661 47.648-0.8692 11.07-1.544 34.329-7.1773 35.646-8.5449l-6.289-30.072c-5.3137 0.9624-10.777 2.1159-15.318 3.0781-20.983 4.4458-47.142 5.2042-57.219 1.6582-9.9796-3.5118-13.914-10.367-13.947-24.305l-0.021-9.25h95.75v-25.75c0-22.129-0.7657-26.85-2.584-33.564-2.8971-10.698-7.3437-18.596-14.088-25.029-11.874-11.326-26.833-15.877-52.078-15.821zm1.7441 33.318c14.416 0 18.353 4.5027 21.164 8.6137 5.2285 7.6483 4.7647 13.461 4.7647 25.234h-54.853c-0.191-9.6939 1.0358-21.037 5.1592-25.16 7.4189-7.4189 15.166-8.6899 23.766-8.6875z"/>
   <path d="m5714.7 2251.8c-21.106 0.047-36.479 4.0418-48.377 12.55-12.652 9.0473-19.465 21.952-21.73 41.162-1.6665 14.131-1.6312 61.599 1.5215 73.365 7.1836 26.81 23.242 37.497 51.086 41.393 8.3005 1.1612 37.358 0.5661 47.648-0.8692 11.07-1.544 34.329-7.1773 35.646-8.5449l-6.289-30.072c-5.3137 0.9624-10.777 2.1159-15.318 3.0781-20.983 4.4458-47.142 5.2042-57.219 1.6582-9.9796-3.5118-13.914-10.367-13.947-24.305l-0.021-9.25h95.75v-25.75c0-22.129-0.7657-26.85-2.584-33.564-2.8971-10.698-7.3437-18.596-14.088-25.029-11.874-11.326-26.833-15.877-52.078-15.821zm1.7441 33.318c14.416 0 18.353 4.5027 21.164 8.6137 5.2285 7.6483 4.7647 13.461 4.7647 25.234h-54.853c-0.191-9.6939 1.0358-21.037 5.1592-25.16 7.4189-7.4189 15.166-8.6899 23.766-8.6875z"/>
   <path d="m6218.6 2251.8c-21.106 0.047-36.479 4.0418-48.377 12.55-12.652 9.0473-19.465 21.952-21.73 41.162-1.6665 14.131-1.6312 61.599 1.5215 73.365 7.1836 26.81 23.242 37.497 51.086 41.393 8.3005 1.1612 37.358 0.5661 47.648-0.8692 11.07-1.544 34.329-7.1773 35.646-8.5449l-6.289-30.072c-5.3137 0.9624-10.777 2.1159-15.318 3.0781-20.983 4.4458-47.142 5.2042-57.219 1.6582-9.9796-3.5118-13.914-10.367-13.947-24.305l-0.021-9.25h95.75v-25.75c0-22.129-0.7657-26.85-2.584-33.564-2.8971-10.698-7.3437-18.596-14.088-25.029-11.874-11.326-26.833-15.877-52.078-15.821zm1.7441 33.318c14.416 0 18.353 4.5027 21.164 8.6137 5.2285 7.6483 4.7647 13.461 4.7647 25.234h-54.853c-0.191-9.6939 1.0358-21.037 5.1592-25.16 7.4189-7.4189 15.166-8.6899 23.766-8.6875z"/>
   <path d="m4322.7 2251.8c-18.975 0-39.698 5.7903-54.994 16.988l-4.0215-13.822h-34.738v235l43.047-6v-68.238c13.583 5.2899 31.255 5.1797 50.707 5.1797 29.818 0 53.225-13.066 53.225-59.33v-50.445c0-44.014-21.907-59.332-53.225-59.332zm-12.5 34.394c12.085-1e-4 22.453 3.0734 22.453 21.688v53.695c0 18.614-6.3677 24.938-22.203 24.938-3.2181 0-23.957-0.7069-38.457-4.1191v-80.938c8.9429-7.9796 24.153-15.264 38.207-15.264z"/>
   <path d="m4510.8 2251.8c-18.975 0-39.698 5.7903-54.994 16.988l-4.0215-13.822h-34.738v235l43.047-6v-68.238c13.583 5.2899 31.255 5.1797 50.707 5.1797 29.818 0 53.225-13.066 53.225-59.33v-50.445c0-44.014-21.907-59.332-53.225-59.332zm-12.5 34.394c12.085-1e-4 22.453 3.0734 22.453 21.688v53.695c0 18.614-6.3677 24.938-22.203 24.938-3.2181 0-23.957-0.7069-38.457-4.1191v-80.938c8.9429-7.9796 24.153-15.264 38.207-15.264z"/>
  </g>
 </g>
</svg>